<!-- <?xml version="1.0" ?><!DOCTYPE svg  PUBLIC '-//W3C//DTD SVG 1.1//EN'  'http://www.w3.org/Graphics/SVG/1.1/DTD/svg11.dtd'><svg height="100%" style="fill-rule:evenodd;clip-rule:evenodd;stroke-linejoin:round;stroke-miterlimit:2;" version="1.1" viewBox="0 0 512 512" width="100%" xml:space="preserve" xmlns="http://www.w3.org/2000/svg" xmlns:serif="http://www.serif.com/" xmlns:xlink="http://www.w3.org/1999/xlink"><g><path d="M256,0c-69.526,0 -78.244,0.295 -105.549,1.541c-27.248,1.243 -45.858,5.57 -62.142,11.899c-16.834,6.542 -31.111,15.296 -45.342,29.528c-14.232,14.231 -22.986,28.508 -29.528,45.342c-6.329,16.283 -10.656,34.893 -11.899,62.141c-1.246,27.305 -1.54,36.023 -1.54,105.549c0,69.524 0.294,78.242 1.54,105.547c1.243,27.248 5.57,45.858 11.899,62.141c6.542,16.834 15.296,31.111 29.528,45.344c14.231,14.231 28.508,22.985 45.342,29.527c16.284,6.328 34.894,10.656 62.142,11.899c27.305,1.245 36.023,1.54 105.549,1.54c69.524,0 78.242,-0.295 105.547,-1.54c27.248,-1.243 45.858,-5.571 62.141,-11.899c16.834,-6.542 31.111,-15.296 45.344,-29.527c14.231,-14.233 22.985,-28.51 29.527,-45.344c6.328,-16.283 10.656,-34.893 11.899,-62.141c1.245,-27.305 1.54,-36.023 1.54,-105.547c0,-69.526 -0.295,-78.244 -1.54,-105.549c-1.243,-27.248 -5.571,-45.858 -11.899,-62.141c-6.542,-16.834 -15.296,-31.111 -29.527,-45.342c-14.233,-14.232 -28.51,-22.986 -45.344,-29.528c-16.283,-6.329 -34.893,-10.656 -62.141,-11.899c-27.305,-1.246 -36.023,-1.541 -105.547,-1.541Zm0,46.127c68.354,0 76.451,0.26 103.445,1.492c24.959,1.139 38.514,5.309 47.535,8.814c11.949,4.644 20.477,10.192 29.435,19.15c8.959,8.958 14.506,17.487 19.15,29.435c3.506,9.021 7.676,22.576 8.815,47.535c1.231,26.995 1.492,35.092 1.492,103.447c0,68.354 -0.261,76.451 -1.492,103.445c-1.139,24.959 -5.309,38.514 -8.815,47.535c-4.644,11.949 -10.191,20.477 -19.15,29.435c-8.958,8.959 -17.486,14.506 -29.435,19.15c-9.021,3.506 -22.576,7.676 -47.535,8.814c-26.99,1.232 -35.086,1.493 -103.445,1.493c-68.361,0 -76.455,-0.261 -103.447,-1.493c-24.959,-1.138 -38.514,-5.308 -47.535,-8.814c-11.949,-4.644 -20.477,-10.191 -29.436,-19.15c-8.958,-8.958 -14.506,-17.486 -19.149,-29.435c-3.506,-9.021 -7.676,-22.576 -8.815,-47.535c-1.232,-26.994 -1.492,-35.091 -1.492,-103.445c0,-68.355 0.26,-76.452 1.492,-103.447c1.139,-24.959 5.309,-38.514 8.815,-47.535c4.643,-11.948 10.191,-20.477 19.149,-29.435c8.959,-8.958 17.487,-14.506 29.436,-19.15c9.021,-3.505 22.576,-7.675 47.535,-8.814c26.995,-1.232 35.092,-1.492 103.447,-1.492Z" style="fill:url(#_Linear1);fill-rule:nonzero;"/><path d="M256,341.332c-47.129,0 -85.334,-38.205 -85.334,-85.332c0,-47.129 38.205,-85.334 85.334,-85.334c47.127,0 85.332,38.205 85.332,85.334c0,47.127 -38.205,85.332 -85.332,85.332Zm0,-216.792c-72.604,0 -131.46,58.856 -131.46,131.46c0,72.602 58.856,131.458 131.46,131.458c72.602,0 131.458,-58.856 131.458,-131.458c0,-72.604 -58.856,-131.46 -131.458,-131.46Z" style="fill:url(#_Linear2);fill-rule:nonzero;"/><path d="M423.372,119.346c0,16.967 -13.754,30.72 -30.72,30.72c-16.966,0 -30.72,-13.753 -30.72,-30.72c0,-16.966 13.754,-30.719 30.72,-30.719c16.966,0 30.72,13.753 30.72,30.719Z" style="fill:url(#_Linear3);fill-rule:nonzero;"/></g><defs><linearGradient gradientTransform="matrix(-149.618,494.3,-494.3,-149.618,300.81,-27.1283)" gradientUnits="userSpaceOnUse" id="_Linear1" x1="0" x2="1" y1="0" y2="0"><stop offset="0" style="stop-color:#515bd4;stop-opacity:1"/><stop offset="0.26" style="stop-color:#9510b8;stop-opacity:1"/><stop offset="0.66" style="stop-color:#e51804;stop-opacity:1"/><stop offset="1" style="stop-color:#feda77;stop-opacity:1"/></linearGradient><linearGradient gradientTransform="matrix(-149.618,494.3,-494.3,-149.618,300.81,-27.1283)" gradientUnits="userSpaceOnUse" id="_Linear2" x1="0" x2="1" y1="0" y2="0"><stop offset="0" style="stop-color:#515bd4;stop-opacity:1"/><stop offset="0.26" style="stop-color:#9510b8;stop-opacity:1"/><stop offset="0.66" style="stop-color:#e51804;stop-opacity:1"/><stop offset="1" style="stop-color:#ffbf00;stop-opacity:1"/></linearGradient><linearGradient gradientTransform="matrix(-149.618,494.3,-494.3,-149.618,300.81,-27.1283)" gradientUnits="userSpaceOnUse" id="_Linear3" x1="0" x2="1" y1="0" y2="0"><stop offset="0" style="stop-color:#515bd4;stop-opacity:1"/><stop offset="0.26" style="stop-color:#9510b8;stop-opacity:1"/><stop offset="0.66" style="stop-color:#e51804;stop-opacity:1"/><stop offset="1" style="stop-color:#ffbf00;stop-opacity:1"/></linearGradient></defs></svg> -->

<svg xmlns="http://www.w3.org/2000/svg" viewBox="0 0 448 512">
    <path
        fill="currentColor"
        d="M224.1 141c-63.6 0-114.9 51.3-114.9 114.9s51.3 114.9 114.9 114.9S339 319.5 339 255.9 287.7 141 224.1 141zm0 189.6c-41.1 0-74.7-33.5-74.7-74.7s33.5-74.7 74.7-74.7 74.7 33.5 74.7 74.7-33.6 74.7-74.7 74.7zm146.4-194.3c0 14.9-12 26.8-26.8 26.8-14.9 0-26.8-12-26.8-26.8s12-26.8 26.8-26.8 26.8 12 26.8 26.8zm76.1 27.2c-1.7-35.9-9.9-67.7-36.2-93.9-26.2-26.2-58-34.4-93.9-36.2-37-2.1-147.9-2.1-184.9 0-35.8 1.7-67.6 9.9-93.9 36.1s-34.4 58-36.2 93.9c-2.1 37-2.1 147.9 0 184.9 1.7 35.9 9.9 67.7 36.2 93.9s58 34.4 93.9 36.2c37 2.1 147.9 2.1 184.9 0 35.9-1.7 67.7-9.9 93.9-36.2 26.2-26.2 34.4-58 36.2-93.9 2.1-37 2.1-147.8 0-184.8zM398.8 388c-7.8 19.6-22.9 34.7-42.6 42.6-29.5 11.7-99.5 9-132.1 9s-102.7 2.6-132.1-9c-19.6-7.8-34.7-22.9-42.6-42.6-11.7-29.5-9-99.5-9-132.1s-2.6-102.7 9-132.1c7.8-19.6 22.9-34.7 42.6-42.6 29.5-11.7 99.5-9 132.1-9s102.7-2.6 132.1 9c19.6 7.8 34.7 22.9 42.6 42.6 11.7 29.5 9 99.5 9 132.1s2.7 102.7-9 132.1z">
    </path>
</svg>