<!-- <?xml version="1.0" ?><!DOCTYPE svg  PUBLIC '-//W3C//DTD SVG 1.1//EN'  'http://www.w3.org/Graphics/SVG/1.1/DTD/svg11.dtd'><svg height="100%" style="fill-rule:evenodd;clip-rule:evenodd;stroke-linejoin:round;stroke-miterlimit:2;" version="1.1" viewBox="0 0 512 512" width="100%" xml:space="preserve" xmlns="http://www.w3.org/2000/svg" xmlns:serif="http://www.serif.com/" xmlns:xlink="http://www.w3.org/1999/xlink"><rect height="400" style="fill:none;" width="400" x="56" y="56"/><path d="M161.014,464.013c193.208,0 298.885,-160.071 298.885,-298.885c0,-4.546 0,-9.072 -0.307,-13.578c20.558,-14.871 38.305,-33.282 52.408,-54.374c-19.171,8.495 -39.51,14.065 -60.334,16.527c21.924,-13.124 38.343,-33.782 46.182,-58.102c-20.619,12.235 -43.18,20.859 -66.703,25.498c-19.862,-21.121 -47.602,-33.112 -76.593,-33.112c-57.682,0 -105.145,47.464 -105.145,105.144c0,8.002 0.914,15.979 2.722,23.773c-84.418,-4.231 -163.18,-44.161 -216.494,-109.752c-27.724,47.726 -13.379,109.576 32.522,140.226c-16.715,-0.495 -33.071,-5.005 -47.677,-13.148l0,1.331c0.014,49.814 35.447,93.111 84.275,102.974c-15.464,4.217 -31.693,4.833 -47.431,1.802c13.727,42.685 53.311,72.108 98.14,72.95c-37.19,29.227 -83.157,45.103 -130.458,45.056c-8.358,-0.016 -16.708,-0.522 -25.006,-1.516c48.034,30.825 103.94,47.18 161.014,47.104" style="fill:#1da1f2;fill-rule:nonzero;"/></svg> -->


<svg xmlns="http://www.w3.org/2000/svg" viewBox="0 0 512 512">
    <path
        fill="currentColor"
        d="M459.37 151.716c.325 4.548.325 9.097.325 13.645 0 138.72-105.583 298.558-298.558 298.558-59.452 0-114.68-17.219-161.137-47.106 8.447.974 16.568 1.299 25.34 1.299 49.055 0 94.213-16.568 130.274-44.832-46.132-.975-84.792-31.188-98.112-72.772 6.498.974 12.995 1.624 19.818 1.624 9.421 0 18.843-1.3 27.614-3.573-48.081-9.747-84.143-51.98-84.143-102.985v-1.299c13.969 7.797 30.214 12.67 47.431 13.319-28.264-18.843-46.781-51.005-46.781-87.391 0-19.492 5.197-37.36 14.294-52.954 51.655 63.675 129.3 105.258 216.365 109.807-1.624-7.797-2.599-15.918-2.599-24.04 0-57.828 46.782-104.934 104.934-104.934 30.213 0 57.502 12.67 76.67 33.137 23.715-4.548 46.456-13.32 66.599-25.34-7.798 24.366-24.366 44.833-46.132 57.827 21.117-2.273 41.584-8.122 60.426-16.243-14.292 20.791-32.161 39.308-52.628 54.253z">
        </path>
</svg>